<?xml version="1.0" encoding="UTF-8"?>
<svg id="Ebene_2" xmlns="http://www.w3.org/2000/svg" viewBox="0 0 93.68 93.88">
  <g id="Layer_1">
    <g>
      <path d="M93.67,59.15v29.16c0,3.36-2.2,5.56-5.59,5.55-15.32-.03-30.64-.08-45.96-.11-4.09-.01-8.17.09-12.26.09-3.51.01-5.65-2.17-5.66-5.68-.01-3.33-.01-6.66,0-9.99.01-3.43,2.19-5.59,5.64-5.6,3.42,0,6.84-.03,10.26.01,2.29.03,4.27-.8,5.84-2.32,1.54-1.5,2.38-3.48,2.39-5.72.01-3.54,0-7.09.01-10.63.01-3.41,2.15-5.53,5.58-5.53,3.42-.01,6.84.01,10.27-.01,4.64-.01,8.23-3.55,8.27-8.21.04-3.48,0-6.96.01-10.45.02-3.49,2.03-5.51,5.54-5.53,3.42-.02,6.84-.02,10.27,0,3.25.02,5.39,2.16,5.39,5.43,0,9.86,0,19.7,0,29.54Z"/>
      <path d="M24.36,52.72c.27-2.61,2.47-4.31,5.12-4.32,3.54-.01,7.09,0,10.63-.01,4.59-.01,8.18-3.57,8.22-8.16.03-3.57,0-7.15.01-10.72.01-3.08,2.15-5.27,5.24-5.3,3.45-.04,6.9-.01,10.36-.01,4.98-.01,8.53-3.56,8.53-8.53,0-3.42-.02-6.84.01-10.27C72.5,2.02,74.58,0,77.96,0S84.92,0,88.41.01c3.06,0,5.26,2.2,5.26,5.27.01,3.48.01,6.96.01,10.45,0,3.22-2.16,5.45-5.38,5.48-3.45.03-6.9.01-10.36.01-4.82,0-8.37,3.51-8.4,8.35-.03,3.42,0,6.84-.01,10.27,0,3.47-2.12,5.57-5.6,5.56-3.42,0-6.84-.03-10.27.01-3.79.05-6.82,2.34-7.89,5.95-.22.74-.27,1.55-.28,2.33-.03,3.45-.07,6.91.01,10.36.07,3.2-2.5,5.7-5.58,5.58-3.39-.13-6.78.02-10.17-.04-1.99-.03-3.91.52-5.32,1.69-1.89,1.57-3.1,3.76-3.09,6.4.02,3.63.01,7.27-.01,10.9-.02,2.98-2.27,5.26-5.22,5.28-3.42.02-6.84.02-10.27.01-2.93-.02-4.96-1.48-5.56-3.98-.1-.44-.14-.9-.14-1.35-.01-3.51-.01-7.03,0-10.54.01-3.23,2.2-5.4,5.43-5.4,3.48-.01,6.96,0,10.45,0,4.62-.01,8.15-3.54,8.17-8.16"/>
      <path d="M69.53,10.59c0,1.76.01,3.51,0,5.27-.01,3.14-2.16,5.32-5.29,5.34-3.54.02-7.09.01-10.63.01-4.48-.01-8.11,3.57-8.13,8.03-.02,3.57.01,7.15-.01,10.72-.01,2.69-1.55,4.7-4.06,5.32-.38.09-.78.11-1.17.11-3.54.01-7.08,0-10.63.01-4.7.02-8.27,3.6-8.28,8.3-.01,3.51,0,7.02-.01,10.54-.01,3.19-2.17,5.36-5.36,5.36H5.42c-3.1-.01-5.28-2.14-5.29-5.22-.02-3.63-.02-7.27,0-10.9.02-2.83,2.25-5.05,5.1-5.07,3.54-.03,7.08,0,10.63-.01,4.8-.02,8.31-3.53,8.32-8.31v-10.26c.01-3.47,2.11-5.6,5.59-5.62,3.36-.02,6.72,0,10.08-.01,4.9,0,8.47-3.59,8.47-8.49,0-3.45-.01-6.9,0-10.35.02-3.22,2.15-5.33,5.36-5.34,3.51-.01,7.02-.01,10.54-.01,3.1,0,5.26,2.14,5.29,5.23.03,1.78.02,3.56.02,5.35Z"/>
      <path d="M21.33,34.7c0,1.91.03,3.81-.01,5.72-.06,2.69-2.24,4.92-4.93,4.95-3.78.05-7.57.05-11.35,0-2.65-.04-4.85-2.24-4.88-4.9-.05-3.81-.05-7.63.01-11.44.04-2.57,2.18-4.75,4.76-4.81,3.6-.08,7.2-.03,10.81-.03,4.24,0,7.44-2.53,8.33-6.65.11-.53.12-1.08.13-1.62.01-3.51-.01-7.02.01-10.53.02-2.59,1.5-4.6,3.82-5.22.55-.14,1.14-.16,1.7-.16,3.39-.02,6.78-.01,10.17-.01s5.57,2.14,5.58,5.53c.01,3.33.01,6.66,0,9.99,0,3.5-2.16,5.68-5.65,5.69-3.42.01-6.84,0-10.26.01-4.64.01-8.2,3.56-8.23,8.23-.01,1.76,0,3.51,0,5.27,0-.02,0-.02,0-.02Z"/>
      <path d="M10.65,21.22h-5.08C2.29,21.22.11,19.19.05,15.92-.02,12.35-.02,8.78.05,5.21.11,2.19,2.32.06,5.35.04,8.89.01,12.43.02,15.97.04c3.06.01,5.3,2.16,5.34,5.22.05,3.57.05,7.14,0,10.71-.04,3.13-2.25,5.24-5.39,5.25-1.76,0-3.51,0-5.27,0Z"/>
    </g>
  </g>
</svg>